<svg xmlns="http://www.w3.org/2000/svg" width="30.849" height="30.849" viewBox="0 0 30.849 30.849">
  <path id="Icon_metro-cancel" data-name="Icon metro-cancel" d="M17.995,1.928A15.424,15.424,0,1,0,33.419,17.352,15.424,15.424,0,0,0,17.995,1.928Zm0,27.956A12.532,12.532,0,1,1,30.527,17.352,12.532,12.532,0,0,1,17.995,29.885ZM22.815,9.64l-4.82,4.82-4.82-4.82-2.892,2.892,4.82,4.82-4.82,4.82,2.892,2.892,4.82-4.82,4.82,4.82,2.892-2.892-4.82-4.82,4.82-4.82Z" transform="translate(-2.571 -1.928)"/>
</svg>
