<svg id="Icon_awesome-edit" data-name="Icon awesome-edit" xmlns="http://www.w3.org/2000/svg" width="40.5" height="34.993" viewBox="0 0 40.5 34.993">
  <path id="Icon_awesome-edit-2" data-name="Icon awesome-edit" d="M28.308,5.688l6.342,6.166a.655.655,0,0,1,0,.943L19.294,27.727l-6.525.7a1.349,1.349,0,0,1-1.512-1.47l.724-6.344L27.337,5.688A.7.7,0,0,1,28.308,5.688ZM39.7,4.122,36.267.786a2.806,2.806,0,0,0-3.881,0L29.9,3.206a.655.655,0,0,0,0,.943l6.342,6.166a.7.7,0,0,0,.97,0L39.7,7.9a2.621,2.621,0,0,0,0-3.773ZM27,23.666v6.959H4.5V8.75H20.658a.877.877,0,0,0,.6-.239l2.813-2.734a.818.818,0,0,0-.6-1.4H3.375A3.33,3.33,0,0,0,0,7.656V31.719A3.33,3.33,0,0,0,3.375,35h24.75A3.33,3.33,0,0,0,31.5,31.719V20.932a.849.849,0,0,0-1.441-.581l-2.812,2.734A.829.829,0,0,0,27,23.666Z" transform="translate(0 -0.007)"/>
</svg>
