<svg xmlns="http://www.w3.org/2000/svg" width="40.5" height="36" viewBox="0 0 40.5 36">
    <path id="Icon_awesome-house-damage" data-name="Icon awesome-house-damage" d="M20.25,8.083,4.885,21.636a3.253,3.253,0,0,1-.385.236v13A1.125,1.125,0,0,0,5.625,36H16.118L13.5,30.881l7.32-4.5L16.59,18,27,27.615l-7.32,4.5L22.487,36H34.875A1.125,1.125,0,0,0,36,34.875v-13a3.28,3.28,0,0,1-.37-.225Zm19.877,8.53L36,12.969V3.375A1.125,1.125,0,0,0,34.875,2.25h-4.5A1.125,1.125,0,0,0,29.25,3.375V7.009L22.131.725a2.8,2.8,0,0,0-3.758,0l-18,15.891A1.125,1.125,0,0,0,.288,18.2l1.5,1.675a1.125,1.125,0,0,0,1.589.085L19.506,5.74a1.126,1.126,0,0,1,1.489,0L37.119,19.962a1.126,1.126,0,0,0,1.589-.085l1.5-1.675A1.125,1.125,0,0,0,40.127,16.613Z" transform="translate(0 0)"/>
</svg>
